<svg width="150" height="50" viewBox="0 0 150 50" fill="none" xmlns="http://www.w3.org/2000/svg">
<path d="M147.853 4.1612L144.903 35.217L137.948 35.7034L128.426 20.1612L128.246 20.1737L126.676 36.4916L118.341 37.0744L121.291 6.01861L128.366 5.52386L137.764 21.0145L138.004 20.9977L139.519 4.744L147.853 4.1612Z" fill="white"/>
<path d="M115.908 22.3632C115.582 25.7401 114.668 28.6158 113.167 30.9903C111.666 33.3648 109.772 35.2094 107.484 36.5243C105.195 37.8391 102.702 38.5909 100.004 38.7796C97.1261 38.9808 94.5841 38.5309 92.3782 37.4299C90.1722 36.3289 88.5004 34.6081 87.3626 32.2675C86.2249 29.9269 85.8242 26.9975 86.1606 23.4793C86.4669 20.1038 87.3698 17.2188 88.8693 14.8243C90.3689 12.4299 92.272 10.5645 94.5786 9.22829C96.8853 7.89206 99.3977 7.12891 102.116 6.93884C104.974 6.73898 107.501 7.19491 109.698 8.30662C111.905 9.41763 113.572 11.1538 114.702 13.5151C115.841 15.8756 116.243 18.825 115.908 22.3632ZM107.446 21.9908C107.603 20.2125 107.52 18.7321 107.196 17.5496C106.872 16.3572 106.303 15.4831 105.491 14.9273C104.678 14.3616 103.623 14.1241 102.323 14.2149C100.844 14.3184 99.5604 14.7697 98.4715 15.5688C97.3826 16.368 96.5105 17.4684 95.8554 18.8699C95.2002 20.2714 94.7891 21.932 94.6221 23.8517C94.4267 25.6528 94.5001 27.1339 94.8424 28.295C95.1947 29.4553 95.7862 30.3027 96.6169 30.8371C97.4576 31.3708 98.5175 31.5929 99.7966 31.5035C101.256 31.4014 102.52 30.9615 103.591 30.1837C104.671 29.4052 105.534 28.3256 106.181 26.9448C106.838 25.5632 107.259 23.9119 107.446 21.9908Z" fill="white"/>
<path d="M58.6493 17.1491L59.3189 10.3539L86.001 8.48814L85.3314 15.2833L76.0976 15.929L73.8174 40.1896L65.6029 40.764L67.8831 16.5034L58.6493 17.1491Z" fill="white"/>
<path d="M36.7622 42.7795L39.7121 11.7237L48.0465 11.1409L45.7663 35.4015L58.178 34.5336L57.5083 41.3288L36.7622 42.7795Z" fill="white"/>
<path d="M11.1407 44.5705L2.14671 45.1994L15.2298 13.435L26.6221 12.6384L33.8055 42.9856L24.8115 43.6145L20.258 21.5791L20.0182 21.5959L11.1407 44.5705ZM10.6535 32.4334L27.5622 31.2511L26.9189 37.5624L10.0103 38.7447L10.6535 32.4334Z" fill="white"/>
</svg>
