<?xml version="1.0" encoding="UTF-8"?> <svg xmlns="http://www.w3.org/2000/svg" width="157" height="34" viewBox="0 0 157 34" fill="none">
<path d="M33.3567 31.1733C33.83 32.0122 33.2173 33.0454 32.2465 33.0454H7.31085C6.85651 33.0454 6.43669 32.8054 6.20957 32.416L3.20919 27.2713C2.98279 26.8831 2.98211 26.405 3.20739 26.0162L17.3612 1.58752C17.5879 1.19634 18.0087 0.955078 18.4643 0.955078H24.4794C24.9332 0.955078 25.3526 1.19442 25.5799 1.58311L33.5016 15.1282C33.9922 15.9671 33.3805 17.017 32.4011 17.017H27.8698C27.4152 17.017 26.9952 16.7769 26.7682 16.3871L22.6065 9.24285C22.1167 8.40218 20.8905 8.40318 20.4022 9.24465L11.433 24.7009C10.9462 25.5398 11.5581 26.5861 12.5357 26.5861H30.0219C30.4827 26.5861 30.9074 26.8328 31.132 27.2309L33.3567 31.1733Z" fill="url(#paint0_linear_24_3925)"/>
<path d="M39.6661 26.0387C39.895 26.431 39.8932 26.9147 39.6614 27.3054L37.365 31.1754C36.8706 32.0086 35.6511 32.0023 35.1655 31.1641L31.9576 25.6269C31.731 25.2357 31.3102 24.9945 30.8545 24.9945H15.2215C14.2437 24.9945 13.6318 23.9476 14.1193 23.1087L16.4038 19.1771C16.6311 18.7858 17.0528 18.545 17.5089 18.546L34.584 18.5829C35.0373 18.5839 35.4557 18.8235 35.6824 19.212L39.6661 26.0387Z" fill="#fff"/>
<path d="M47.6841 25.6582L53.8275 9.64077H58.777L64.9203 25.6582H60.0454L58.7023 22.2508H53.8772L52.559 25.6582H47.6841ZM54.499 18.8931H58.0806L56.2898 14.1923L54.499 18.8931ZM70.5473 25.9069C69.4364 25.9069 68.4664 25.7245 67.6373 25.3597C66.8249 24.9784 66.1865 24.3649 65.7222 23.5192C65.2745 22.6736 65.0507 21.5461 65.0507 20.1367C65.0507 18.6941 65.3077 17.492 65.8217 16.5303C66.3357 15.5685 67.0238 14.8473 67.8861 14.3664C68.7483 13.869 69.6851 13.6203 70.6966 13.6203C71.2438 13.6203 71.7826 13.6783 72.3132 13.7944C72.8604 13.9104 73.333 14.0762 73.7309 14.2918V8.89461H78.4068V25.6582H74.3527L74.1289 24.7379C73.6646 25.1027 73.1423 25.3929 72.562 25.6085C71.9982 25.8074 71.3267 25.9069 70.5473 25.9069ZM71.8904 22.5244C72.6034 22.5244 73.2169 22.2839 73.7309 21.8031V17.6246C73.2667 17.2101 72.6532 17.0028 71.8904 17.0028C71.2769 17.0028 70.7795 17.2764 70.3981 17.8236C70.0167 18.3708 69.8261 19.1501 69.8261 20.1615C69.8261 21.1564 69.9919 21.8031 70.3235 22.1015C70.6551 22.3834 71.1774 22.5244 71.8904 22.5244ZM85.2571 25.9069C84.2456 25.9069 83.2922 25.8323 82.3968 25.6831C81.518 25.5504 80.8216 25.3763 80.3076 25.1608V21.8031C80.8879 22.0684 81.576 22.2756 82.3719 22.4249C83.1844 22.5741 83.8725 22.6487 84.4363 22.6487C85.0332 22.6487 85.4809 22.6321 85.7794 22.599C86.0944 22.5658 86.2519 22.4249 86.2519 22.1762C86.2519 21.8943 85.9783 21.6787 85.4312 21.5295C84.884 21.3803 84.1959 21.1647 83.3668 20.8828C82.289 20.5015 81.4848 20.0538 80.9542 19.5397C80.4236 19.0257 80.1583 18.2796 80.1583 17.3013C80.1583 16.124 80.6226 15.2203 81.5512 14.5903C82.4797 13.9436 83.9389 13.6203 85.9286 13.6203C86.6913 13.6203 87.4789 13.6783 88.2914 13.7944C89.1039 13.9104 89.7423 14.0431 90.2066 14.1923V17.4754C89.7091 17.2598 89.1619 17.1023 88.565 17.0028C87.9847 16.9033 87.4541 16.8536 86.9732 16.8536C86.4426 16.8536 85.9701 16.8785 85.5555 16.9282C85.141 16.9779 84.9337 17.1189 84.9337 17.351C84.9337 17.6163 85.1659 17.807 85.6301 17.9231C86.111 18.0391 86.7494 18.2215 87.5453 18.4703C88.4407 18.7356 89.1371 19.0257 89.6345 19.3408C90.1485 19.6558 90.505 20.0372 90.704 20.4849C90.9195 20.9326 91.0273 21.488 91.0273 22.1513C91.0273 23.3451 90.5382 24.2737 89.5599 24.9369C88.5982 25.5836 87.1639 25.9069 85.2571 25.9069ZM101.033 25.9069C98.1814 25.9069 96.0093 25.2105 94.517 23.8177C93.0246 22.4083 92.2785 20.402 92.2785 17.7987C92.2785 15.1126 93.0495 13.0399 94.5916 11.5808C96.1336 10.1216 98.3887 9.39205 101.357 9.39205C102.352 9.39205 103.247 9.45008 104.043 9.56615C104.855 9.68222 105.618 9.85632 106.331 10.0885V14.0928C105.601 13.8109 104.847 13.6203 104.068 13.5208C103.288 13.4213 102.493 13.3715 101.68 13.3715C100.138 13.3715 98.9773 13.7197 98.198 14.4162C97.4352 15.1126 97.0539 16.2401 97.0539 17.7987C97.0539 19.2579 97.3855 20.3108 98.0487 20.9574C98.7286 21.6041 99.7234 21.9274 101.033 21.9274C101.464 21.9274 101.871 21.9026 102.252 21.8528C102.633 21.7865 102.99 21.7036 103.322 21.6041V19.2662H100.138V16.381H107.226V24.4395C106.613 24.8209 105.792 25.1608 104.764 25.4592C103.753 25.7577 102.509 25.9069 101.033 25.9069ZM108.977 25.6582V13.869H113.478L113.603 14.8141C114.084 14.5322 114.697 14.2752 115.443 14.0431C116.189 13.8109 116.944 13.67 117.707 13.6203V17.1023C117.275 17.1355 116.803 17.1935 116.289 17.2764C115.791 17.3593 115.302 17.4671 114.821 17.5997C114.357 17.7158 113.968 17.8485 113.652 17.9977V25.6582H108.977ZM121.96 25.9069C121.214 25.9069 120.518 25.7743 119.871 25.509C119.241 25.2437 118.735 24.8291 118.354 24.2654C117.972 23.7016 117.782 22.9886 117.782 22.1264C117.782 20.8828 118.196 19.9211 119.025 19.2413C119.854 18.5449 121.106 18.1967 122.781 18.1967H125.84V17.9728C125.84 17.5085 125.65 17.1686 125.268 16.9531C124.887 16.7375 124.215 16.6297 123.254 16.6297C121.894 16.6297 120.551 16.837 119.224 17.2515V14.441C119.821 14.2089 120.567 14.0182 121.463 13.869C122.358 13.7032 123.27 13.6203 124.199 13.6203C126.072 13.6203 127.556 14.0016 128.651 14.7644C129.745 15.5271 130.292 16.7375 130.292 18.3956V25.6582H126.213L125.989 24.7131C125.575 25.0779 125.036 25.368 124.373 25.5836C123.726 25.7991 122.922 25.9069 121.96 25.9069ZM123.552 23.171C124.083 23.171 124.53 23.0798 124.895 22.8974C125.276 22.715 125.592 22.4912 125.84 22.2259V20.7585H123.577C122.549 20.7585 122.035 21.1647 122.035 21.9772C122.035 22.7731 122.541 23.171 123.552 23.171ZM132.415 25.6582V13.869H136.743L136.867 14.8141C137.381 14.4659 137.953 14.184 138.584 13.9685C139.23 13.7363 139.935 13.6203 140.698 13.6203C141.46 13.6203 142.057 13.728 142.488 13.9436C142.92 14.1591 143.268 14.4742 143.533 14.8887C144.064 14.5073 144.661 14.2006 145.324 13.9685C146.004 13.7363 146.8 13.6203 147.712 13.6203C149.088 13.6203 150.099 13.985 150.746 14.7146C151.393 15.4276 151.716 16.522 151.716 17.9977V25.6582H147.115V18.5449C147.115 18.0143 147.007 17.6412 146.791 17.4256C146.576 17.1935 146.219 17.0774 145.722 17.0774C145.075 17.0774 144.544 17.3096 144.13 17.7738C144.163 17.9894 144.18 18.1967 144.18 18.3956C144.18 18.578 144.18 18.7853 144.18 19.0174V25.6582H139.852V18.4703C139.852 17.9894 139.769 17.6412 139.603 17.4256C139.437 17.1935 139.122 17.0774 138.658 17.0774C138.343 17.0774 138.036 17.1603 137.738 17.3262C137.439 17.492 137.174 17.6909 136.942 17.9231V25.6582H132.415Z" fill="#fff"/>
<defs>
<linearGradient id="paint0_linear_24_3925" x1="35.1235" y1="37.0003" x2="13.5706" y2="-1.14359" gradientUnits="userSpaceOnUse">
<stop offset="0.0446244" stop-color="#fff"/>
<stop offset="0.335569" stop-color="#fff"/>
<stop offset="0.657543" stop-color="#fff"/>
<stop offset="0.933293" stop-color="#fff"/>
</linearGradient>
<linearGradient id="paint1_linear_24_3925" x1="35.1235" y1="37.0003" x2="13.5706" y2="-1.14359" gradientUnits="userSpaceOnUse">
<stop offset="0.0446244" stop-color="#fff"/>
<stop offset="0.335569" stop-color="#fff"/>
<stop offset="0.657543" stop-color="#fff"/>
<stop offset="0.933293" stop-color="#fff"/>
</linearGradient>
</defs>
</svg>
