<svg width="162" height="28" viewBox="0 0 162 28" fill="none" xmlns="http://www.w3.org/2000/svg">
<g clip-path="url(#clip0_3119_44170)">
<mask id="mask0_3119_44170" style="mask-type:luminance" maskUnits="userSpaceOnUse" x="0" y="0" width="162" height="28">
<path d="M162 0H0V28H162V0Z" fill="white"/>
</mask>
<g mask="url(#mask0_3119_44170)">
<path fill-rule="evenodd" clip-rule="evenodd" d="M14.4643 0C14.4643 7.74185 7.98841 14.0179 0 14.0179C0 6.276 6.47587 0 14.4643 0ZM14.4643 28.0357C6.47587 28.0357 0 21.7597 0 14.0179C7.98841 14.0179 14.4643 20.2939 14.4643 28.0357ZM28.9286 14.0179C28.9286 21.7597 22.4527 28.0357 14.4643 28.0357C14.4643 20.2939 20.9402 14.0179 28.9286 14.0179ZM27.7232 1.16818C27.7232 7.61969 22.3266 12.8497 15.6696 12.8497C15.6696 6.39817 21.0662 1.16818 27.7232 1.16818Z" fill="white"/>
<path d="M48.8607 27.8252C47.6264 27.8252 46.3826 27.6477 45.129 27.2925C43.8947 26.9561 42.8919 26.5075 42.1204 25.9468L43.7404 22.7507C44.3576 23.162 45.0518 23.4797 45.8233 23.704C46.614 23.947 47.4337 24.0684 48.2822 24.0684C49.2657 24.0684 50.0661 23.9282 50.6833 23.6479C51.3004 23.3675 51.7536 22.947 52.043 22.3863C52.3515 21.8256 52.5057 21.1247 52.5057 20.2836V17.8165L53.3736 17.9847C53.258 18.5641 52.9301 19.1061 52.3901 19.6107C51.8694 20.1154 51.2233 20.5173 50.4519 20.8163C49.6804 21.1154 48.8704 21.2649 48.0218 21.2649C46.6333 21.2649 45.3894 20.9565 44.2901 20.3397C43.1907 19.7042 42.323 18.8351 41.6865 17.7324C41.0694 16.6109 40.7607 15.3213 40.7607 13.8634C40.7607 12.3682 41.0694 11.0412 41.6865 9.88235C42.323 8.72357 43.1811 7.81711 44.2612 7.16289C45.3411 6.50875 46.5561 6.18164 47.9062 6.18164C48.4654 6.18164 49.0054 6.2471 49.5262 6.37789C50.0661 6.49003 50.5579 6.65825 51.0015 6.88253C51.4644 7.10682 51.8694 7.35914 52.2165 7.6395C52.5829 7.91986 52.8819 8.22825 53.1133 8.56468C53.3447 8.90111 53.4894 9.23753 53.5472 9.57396L52.5925 9.85432L52.7662 6.49003H57.1922V20.1434C57.1922 21.3584 56.9991 22.4424 56.6136 23.3956C56.247 24.3488 55.6974 25.1525 54.9647 25.8066C54.2511 26.4609 53.3832 26.9561 52.3612 27.2925C51.339 27.6477 50.1722 27.8252 48.8607 27.8252ZM48.9765 17.7604C49.7286 17.7604 50.3747 17.6016 50.9147 17.2838C51.474 16.9661 51.8983 16.5175 52.1876 15.9381C52.4961 15.3587 52.6504 14.6859 52.6504 13.9195C52.6504 13.1159 52.4961 12.4243 52.1876 11.8449C51.8983 11.2655 51.474 10.8169 50.9147 10.4991C50.3747 10.1627 49.7286 9.9945 48.9765 9.9945C48.2629 9.9945 47.6361 10.1627 47.0962 10.4991C46.5561 10.8169 46.1319 11.2655 45.8233 11.8449C45.534 12.4243 45.3894 13.1065 45.3894 13.8915C45.3894 14.6765 45.534 15.3587 45.8233 15.9381C46.1319 16.5175 46.5561 16.9661 47.0962 17.2838C47.6361 17.6016 48.2629 17.7604 48.9765 17.7604Z" fill="white"/>
<path d="M67.9509 21.6574C66.2535 21.6574 64.7687 21.3303 63.4959 20.6761C62.2426 20.022 61.2684 19.1248 60.5741 17.9847C59.8994 16.8259 59.5615 15.5082 59.5615 14.0316C59.5615 12.8729 59.7547 11.8168 60.1402 10.8636C60.5256 9.89175 61.0659 9.06 61.7602 8.36843C62.4739 7.67692 63.3028 7.14425 64.248 6.77039C65.212 6.37789 66.2636 6.18164 67.4012 6.18164C68.481 6.18164 69.4646 6.36857 70.352 6.74235C71.2393 7.11621 72.0102 7.6395 72.6662 8.31236C73.3221 8.98521 73.8233 9.7796 74.1705 10.6954C74.5176 11.6112 74.6818 12.6112 74.6623 13.6952L74.6333 14.9288H62.4255L61.7312 12.3775H70.8437L70.352 12.8822V12.3215C70.3136 11.8542 70.1588 11.4524 69.8891 11.1159C69.6381 10.7609 69.3011 10.4805 68.8765 10.2749C68.4715 10.0693 68.0087 9.96646 67.488 9.96646C66.7164 9.96646 66.0611 10.116 65.5209 10.415C65.0002 10.6954 64.6046 11.1066 64.3347 11.6486C64.065 12.1907 63.9297 12.8635 63.9297 13.6672C63.9297 14.4709 64.1033 15.1811 64.4505 15.7979C64.8171 16.4147 65.3379 16.8913 66.0126 17.2277C66.707 17.5641 67.5264 17.7324 68.4715 17.7324C69.108 17.7324 69.6865 17.6389 70.2073 17.452C70.728 17.2651 71.287 16.9474 71.8852 16.4988L74.0547 19.4706C73.4567 19.9566 72.8202 20.3677 72.1455 20.7041C71.4707 21.0219 70.7765 21.2555 70.0626 21.405C69.3683 21.5732 68.6647 21.6574 67.9509 21.6574Z" fill="white"/>
<path d="M78.3043 21.3771V2.7334H82.9617V21.3771H78.3043ZM75.585 10.4432V6.49018H85.9125V10.4432H75.585Z" fill="white"/>
<path d="M94.8969 27.8257C93.6623 27.8257 92.4184 27.6482 91.1651 27.293C89.9305 26.9566 88.9274 26.508 88.1565 25.9473L89.7765 22.7512C90.3934 23.1624 91.0877 23.4802 91.8593 23.7045C92.6498 23.9475 93.4692 24.0689 94.3183 24.0689C95.3019 24.0689 96.1018 23.9287 96.7193 23.6484C97.3363 23.368 97.7898 22.9475 98.079 22.3868C98.3871 21.8261 98.5419 21.1252 98.5419 20.2841V17.8169L99.4097 17.9852C99.294 18.5646 98.9657 19.1066 98.4261 19.6112C97.9054 20.1159 97.2589 20.5178 96.4879 20.8168C95.7163 21.1158 94.9063 21.2653 94.0579 21.2653C92.6693 21.2653 91.4254 20.957 90.3261 20.3402C89.2269 19.7047 88.359 18.8356 87.7225 17.7328C87.105 16.6114 86.7969 15.3218 86.7969 13.8639C86.7969 12.3687 87.105 11.0417 87.7225 9.88284C88.359 8.72406 89.2168 7.81759 90.2972 7.16338C91.3769 6.50924 92.5919 6.18213 93.9422 6.18213C94.5013 6.18213 95.0415 6.24759 95.5622 6.37838C96.1018 6.49052 96.5935 6.65874 97.0375 6.88302C97.5004 7.10731 97.9054 7.35963 98.2526 7.63999C98.6185 7.92034 98.9179 8.22874 99.1493 8.56517C99.3808 8.90159 99.5254 9.23802 99.5833 9.57445L98.6287 9.85481L98.8022 6.49052H103.228V20.1439C103.228 21.3588 103.035 22.4428 102.65 23.3961C102.283 24.3493 101.733 25.153 101.001 25.8071C100.287 26.4613 99.4192 26.9566 98.3972 27.293C97.3745 27.6482 96.208 27.8257 94.8969 27.8257ZM95.0126 17.7609C95.7647 17.7609 96.4105 17.6021 96.9508 17.2843C97.5098 16.9666 97.9343 16.518 98.2237 15.9386C98.5318 15.3592 98.6865 14.6863 98.6865 13.92C98.6865 13.1163 98.5318 12.4248 98.2237 11.8453C97.9343 11.266 97.5098 10.8174 96.9508 10.4996C96.4105 10.1632 95.7647 9.99499 95.0126 9.99499C94.2987 9.99499 93.6718 10.1632 93.1322 10.4996C92.5919 10.8174 92.1674 11.266 91.8593 11.8453C91.5701 12.4248 91.4254 13.107 91.4254 13.892C91.4254 14.677 91.5701 15.3592 91.8593 15.9386C92.1674 16.518 92.5919 16.9666 93.1322 17.2843C93.6718 17.6021 94.2987 17.7609 95.0126 17.7609Z" fill="white"/>
<path d="M113.988 21.6578C112.29 21.6578 110.805 21.3308 109.533 20.6766C108.278 20.0225 107.305 19.1253 106.611 17.9852C105.935 16.8264 105.599 15.5087 105.599 14.0321C105.599 12.8733 105.791 11.8173 106.178 10.8641C106.562 9.89224 107.103 9.06048 107.798 8.36891C108.511 7.67741 109.34 7.14474 110.285 6.77088C111.249 6.37838 112.299 6.18213 113.439 6.18213C114.518 6.18213 115.501 6.36906 116.389 6.74284C117.275 7.1167 118.047 7.63999 118.703 8.31284C119.358 8.9857 119.86 9.78009 120.208 10.6959C120.554 11.6117 120.718 12.6117 120.7 13.6957L120.67 14.9293H108.462L107.769 12.378H116.881L116.389 12.8827V12.322C116.349 11.8547 116.196 11.4528 115.926 11.1164C115.675 10.7613 115.337 10.481 114.913 10.2753C114.509 10.0698 114.045 9.96695 113.525 9.96695C112.753 9.96695 112.097 10.1165 111.558 10.4155C111.038 10.6959 110.641 11.1071 110.372 11.6491C110.102 12.1912 109.966 12.864 109.966 13.6677C109.966 14.4714 110.14 15.1816 110.488 15.7984C110.854 16.4152 111.374 16.8918 112.05 17.2282C112.744 17.5646 113.563 17.7328 114.509 17.7328C115.145 17.7328 115.723 17.6394 116.244 17.4525C116.765 17.2656 117.324 16.9478 117.922 16.4993L120.092 19.4711C119.493 19.9571 118.857 20.3682 118.182 20.7046C117.507 21.0224 116.813 21.256 116.1 21.4055C115.405 21.5737 114.701 21.6578 113.988 21.6578Z" fill="white"/>
<path d="M123.038 21.3773V6.49032H127.465L127.609 9.18175L126.973 9.23782C127.184 8.75189 127.474 8.32203 127.84 7.94817C128.207 7.57439 128.612 7.266 129.056 7.023C129.518 6.76135 130.001 6.5651 130.501 6.43425C131.003 6.28475 131.505 6.20996 132.006 6.20996C132.778 6.20996 133.462 6.3221 134.06 6.54639C134.677 6.77067 135.208 7.13514 135.651 7.63978C136.114 8.14443 136.481 8.81728 136.75 9.65835L136.056 9.54621L136.259 9.15371C136.528 8.70514 136.857 8.30332 137.243 7.94817C137.647 7.57439 138.091 7.25667 138.573 6.99496C139.055 6.73332 139.547 6.53707 140.048 6.40621C140.569 6.27542 141.071 6.20996 141.553 6.20996C142.768 6.20996 143.78 6.44364 144.59 6.91085C145.4 7.37814 146.008 8.06971 146.413 8.9855C146.818 9.88264 147.02 10.9947 147.02 12.3217V21.3773H142.363V12.6582C142.363 11.7797 142.17 11.1256 141.784 10.6957C141.417 10.2471 140.858 10.0228 140.106 10.0228C139.701 10.0228 139.325 10.0883 138.978 10.2191C138.65 10.3312 138.361 10.5088 138.11 10.7517C137.879 10.976 137.695 11.2377 137.56 11.5367C137.425 11.8358 137.358 12.1722 137.358 12.546V21.3773H132.7V12.6301C132.7 11.7891 132.498 11.1442 132.093 10.6957C131.708 10.2471 131.158 10.0228 130.444 10.0228C130.059 10.0228 129.691 10.0883 129.345 10.2191C129.017 10.3312 128.728 10.5088 128.477 10.7517C128.246 10.976 128.062 11.2377 127.927 11.5367C127.792 11.8358 127.725 12.1722 127.725 12.546V21.3773H123.038Z" fill="white"/>
<path d="M155.495 21.6574C154.029 21.6574 152.718 21.4331 151.561 20.9845C150.403 20.5173 149.478 19.8818 148.783 19.0781L151.619 16.7231C152.216 17.3025 152.891 17.7324 153.643 18.0127C154.395 18.2744 155.108 18.4052 155.784 18.4052C156.035 18.4052 156.257 18.3772 156.45 18.3211C156.642 18.265 156.806 18.1903 156.941 18.0968C157.096 17.9847 157.211 17.8632 157.289 17.7324C157.365 17.5829 157.404 17.4146 157.404 17.2277C157.404 16.8539 157.24 16.5736 156.912 16.3866C156.757 16.2932 156.479 16.1811 156.073 16.0502C155.669 15.9007 155.148 15.7512 154.511 15.6016C153.605 15.3774 152.814 15.1064 152.14 14.7886C151.484 14.4709 150.943 14.1064 150.52 13.6952C150.133 13.3214 149.835 12.8916 149.622 12.4056C149.429 11.9196 149.333 11.3776 149.333 10.7795C149.333 9.86371 149.613 9.06 150.172 8.36843C150.751 7.67692 151.503 7.14425 152.429 6.77039C153.354 6.37789 154.356 6.18164 155.438 6.18164C156.286 6.18164 157.086 6.27514 157.839 6.462C158.609 6.64893 159.324 6.91057 159.979 7.247C160.654 7.58343 161.252 7.98532 161.772 8.45253L159.313 11.1159C158.985 10.7982 158.6 10.5179 158.157 10.2749C157.713 10.0132 157.269 9.80764 156.825 9.65807C156.382 9.48985 155.967 9.40575 155.582 9.40575C155.292 9.40575 155.032 9.43378 154.801 9.48986C154.588 9.52728 154.405 9.602 154.251 9.71414C154.116 9.80764 154.01 9.92911 153.933 10.0786C153.856 10.2095 153.818 10.359 153.818 10.5272C153.818 10.7328 153.865 10.9197 153.962 11.0879C154.078 11.2375 154.231 11.3776 154.424 11.5084C154.599 11.6019 154.897 11.7234 155.321 11.8729C155.765 12.0225 156.344 12.1907 157.058 12.3775C157.964 12.6205 158.735 12.9009 159.371 13.2186C160.026 13.5177 160.547 13.8728 160.933 14.284C161.261 14.6017 161.492 14.9755 161.628 15.4054C161.782 15.8166 161.86 16.2652 161.86 16.7511C161.86 17.7043 161.579 18.5548 161.021 19.3024C160.48 20.0313 159.728 20.6107 158.764 21.0406C157.819 21.4518 156.728 21.6574 155.495 21.6574Z" fill="white"/>
</g>
</g>
<defs>
<clipPath id="clip0_3119_44170">
<rect width="162" height="28" fill="white"/>
</clipPath>
</defs>
</svg>
