<?xml version="1.0" encoding="UTF-8"?> <svg xmlns="http://www.w3.org/2000/svg" width="160" height="60" viewBox="0 0 160 60" fill="none"><g clip-path="url(#clip0_763_8116)"><path fill-rule="evenodd" clip-rule="evenodd" d="M38.7146 38.5454C46.6162 46.5007 56.4918 49.4568 60.7715 45.147C64.0349 41.8625 63.104 35.3039 58.9764 28.847C59.8748 27.3592 60.7487 25.8543 61.5959 24.3316C61.8002 23.9688 61.9085 23.5599 61.9106 23.1436C61.9126 22.7273 61.8084 22.3174 61.6077 21.9526C61.407 21.5879 61.1165 21.2804 60.7637 21.0593C60.411 20.8382 60.0076 20.7109 59.5918 20.6893C56.9252 20.5389 54.2382 20.4617 51.5341 20.4617H51.4992C44.174 14.4161 35.9585 12.5121 32.1577 16.3397C27.8772 20.6486 30.813 30.5917 38.7146 38.5462V38.5454ZM51.4992 20.4633C48.8065 20.4633 46.1317 20.5397 43.4756 20.6901C43.0599 20.7118 42.6566 20.8393 42.304 21.0604C41.9513 21.2816 41.6609 21.589 41.4603 21.9538C41.2597 22.3185 41.1556 22.7284 41.1577 23.1446C41.1598 23.5609 41.2681 23.9697 41.4723 24.3324C43.931 28.7496 46.6162 33.0368 49.517 37.1771C49.7434 37.5023 50.0451 37.7679 50.3963 37.9514C50.7475 38.1348 51.1379 38.2306 51.5341 38.2306C51.9303 38.2306 52.3207 38.1348 52.6719 37.9514C53.0231 37.7679 53.3248 37.5023 53.5512 37.1771C55.4531 34.4627 57.2625 31.6839 58.9764 28.847C57.6894 26.834 56.0918 24.8324 54.2146 22.9413C53.3507 22.0712 52.4445 21.2442 51.4992 20.4633Z" fill="white"></path><path d="M77.1919 40.5864V24.3441H70.4902V20.71H87.9821V24.3441H81.3089V40.5864H77.1919ZM99.3797 40.8986C97.9024 40.8986 96.5301 40.6433 95.2618 40.1319C94.0185 39.618 92.8822 38.8763 91.9114 37.9449C90.9685 37.0042 90.2078 35.8973 89.6675 34.6799C89.1382 33.4303 88.8732 32.0864 88.8732 30.6474C88.8732 29.2092 89.1382 27.875 89.6683 26.6441C90.1989 25.4213 90.9605 24.3124 91.9114 23.3783C92.8723 22.4348 94.0112 21.6917 95.2618 21.1921C96.5301 20.662 97.9024 20.397 99.3797 20.397C100.856 20.397 102.228 20.662 103.497 21.1921C104.752 21.6827 105.893 22.4272 106.847 23.3791C107.81 24.3028 108.574 25.414 109.091 26.6441C109.62 27.875 109.886 29.2092 109.886 30.6482C109.886 32.0872 109.62 33.4303 109.09 34.6807C108.564 35.9056 107.802 37.015 106.847 37.9457C105.901 38.8726 104.784 39.6018 103.497 40.1327C102.228 40.6433 100.856 40.8986 99.3797 40.8986ZM99.3797 37.1222C100.288 37.1222 101.121 36.9612 101.878 36.6392C102.618 36.3103 103.292 35.8485 103.866 35.2766C104.441 34.6787 104.895 33.9746 105.201 33.2035C105.526 32.391 105.689 31.5232 105.683 30.6482C105.683 29.7205 105.522 28.8677 105.201 28.0921C104.899 27.3275 104.445 26.6321 103.866 26.0482C103.302 25.4641 102.626 25.0002 101.878 24.6848C101.121 24.3441 100.288 24.1734 99.3797 24.1734C98.4894 24.1734 97.6658 24.3441 96.9089 24.6856C96.1611 25.0008 95.4849 25.4644 94.9211 26.0482C94.3427 26.6322 93.8889 27.3276 93.587 28.0921C93.265 28.8685 93.1041 29.7108 93.1041 30.6197C93.1041 31.5466 93.265 32.4084 93.587 33.2035C93.8931 33.9745 94.3462 34.6786 94.9211 35.2766C95.4949 35.8484 96.1687 36.3103 96.9089 36.6392C97.6658 36.9612 98.4894 37.1222 99.3797 37.1222ZM113.306 40.5864V20.7092H123.274C124.58 20.7092 125.725 20.9742 126.71 21.5043C127.686 22.0092 128.502 22.7765 129.067 23.7197C129.634 24.6466 129.918 25.7262 129.918 26.9563C129.918 28.1303 129.634 29.1807 129.067 30.1084C128.498 31.036 127.713 31.7653 126.71 32.2953C125.706 32.8246 124.561 33.0896 123.274 33.0896H117.424V40.5864H113.306ZM117.424 29.6823H122.82C123.709 29.6823 124.419 29.4368 124.949 28.9441C125.498 28.4523 125.772 27.7986 125.772 26.9848C125.772 26.1523 125.498 25.4888 124.949 24.997C124.419 24.5051 123.709 24.2588 122.82 24.2588H117.424V29.6823Z" fill="white"></path></g><defs><clipPath id="clip0_763_8116"><rect width="100" height="34.9593" fill="white" transform="translate(30 13)"></rect></clipPath></defs></svg> 